<svg width="756" height="260" viewBox="0 0 756 260" fill="none" xmlns="http://www.w3.org/2000/svg">
<path d="M130.001 152.305L183.849 206.152L130.001 260V260C100.262 230.261 100.262 182.044 130.001 152.305V152.305Z" fill="#00BC7D"/>
<path d="M130.001 107.695L76.1532 53.8476L130.001 -0.000168782V-0.000168782C159.74 29.7391 159.74 77.956 130.001 107.695V107.695Z" fill="#00BC7D"/>
<path d="M107.695 130.001L53.8476 183.849L-0.000168782 130.001V130.001C29.7391 100.262 77.956 100.262 107.695 130.001V130.001Z" fill="#00BC7D"/>
<path d="M152.305 130.001L206.152 76.1532L260 130.001V130.001C230.261 159.74 182.044 159.74 152.305 130.001V130.001Z" fill="#00BC7D"/>
<path d="M302.24 116V24.352H334.368C340 24.352 345.035 25.5467 349.472 27.936C353.909 30.3253 357.408 33.6107 359.968 37.792C362.613 41.9733 363.936 46.8373 363.936 52.384C363.936 56.0533 363.168 59.552 361.632 62.88C360.181 66.208 358.048 69.1947 355.232 71.84C352.501 74.4 349.173 76.4053 345.248 77.856C344.48 78.1973 343.669 78.4533 342.816 78.624L368.16 115.232V116H351.904L327.456 80.032H316.32V116H302.24ZM316.32 67.104H333.984C336.885 67.104 339.488 66.464 341.792 65.184C344.181 63.904 346.101 62.1547 347.552 59.936C349.003 57.632 349.728 55.072 349.728 52.256C349.728 49.7813 349.131 47.4347 347.936 45.216C346.741 42.912 344.992 41.0773 342.688 39.712C340.469 38.2613 337.739 37.536 334.496 37.536H316.32V67.104ZM408.51 118.048C402.11 118.048 396.393 116.555 391.358 113.568C386.323 110.581 382.355 106.485 379.454 101.28C376.638 96.0747 375.23 90.144 375.23 83.488C375.23 77.2587 376.595 71.4987 379.326 66.208C382.057 60.9173 385.854 56.6933 390.718 53.536C395.667 50.2933 401.342 48.672 407.742 48.672C414.483 48.672 420.201 50.1227 424.894 53.024C429.673 55.9253 433.299 59.8933 435.774 64.928C438.249 69.9627 439.486 75.6373 439.486 81.952C439.486 82.8907 439.443 83.744 439.358 84.512C439.358 85.28 439.315 85.8773 439.23 86.304H388.798C389.139 89.888 390.035 93.0027 391.486 95.648C393.363 98.976 395.838 101.493 398.91 103.2C401.982 104.907 405.31 105.76 408.894 105.76C413.246 105.76 416.873 104.779 419.774 102.816C422.761 100.768 425.107 98.2507 426.814 95.264L438.206 100.768C435.39 105.888 431.55 110.069 426.686 113.312C421.822 116.469 415.763 118.048 408.51 118.048ZM389.566 75.936H425.79C425.705 74.3147 425.278 72.608 424.51 70.816C423.742 68.9387 422.633 67.232 421.182 65.696C419.731 64.16 417.897 62.9227 415.678 61.984C413.459 60.96 410.857 60.448 407.87 60.448C404.115 60.448 400.787 61.4293 397.886 63.392C394.985 65.2693 392.723 67.9147 391.102 71.328C390.419 72.7787 389.907 74.3147 389.566 75.936ZM482.144 118.048C475.573 118.048 469.728 116.555 464.608 113.568C459.573 110.581 455.605 106.485 452.704 101.28C449.888 95.9893 448.48 90.016 448.48 83.36C448.48 76.704 449.888 70.7733 452.704 65.568C455.605 60.3627 459.573 56.2667 464.608 53.28C469.728 50.208 475.573 48.672 482.144 48.672C489.397 48.672 495.499 50.2933 500.448 53.536C505.483 56.7787 509.067 61.1733 511.2 66.72L498.656 71.84C497.12 68.3413 494.901 65.7387 492 64.032C489.184 62.24 485.813 61.344 481.888 61.344C478.304 61.344 475.019 62.2827 472.032 64.16C469.045 65.952 466.656 68.4693 464.864 71.712C463.072 74.9547 462.176 78.8373 462.176 83.36C462.176 87.7973 463.072 91.68 464.864 95.008C466.656 98.336 469.045 100.896 472.032 102.688C475.019 104.48 478.304 105.376 481.888 105.376C486.069 105.376 489.611 104.437 492.512 102.56C495.413 100.683 497.675 98.0373 499.296 94.624L511.584 100C509.195 105.205 505.483 109.515 500.448 112.928C495.499 116.341 489.397 118.048 482.144 118.048ZM544.318 140.448C544.062 141.045 543.763 141.643 543.422 142.24C543.166 142.923 542.995 143.392 542.91 143.648H528.19C528.617 142.709 529.214 141.387 529.982 139.68C530.835 137.973 531.646 136.267 532.414 134.56C532.926 133.451 533.438 132.256 533.95 130.976C534.547 129.696 535.145 128.373 535.742 127.008C536.425 125.643 537.065 124.32 537.662 123.04L542.526 112.416L515.262 50.72H530.622L549.31 95.264H549.95L567.998 50.72H583.23L549.438 128.544C548.841 129.995 548.158 131.531 547.39 133.152C546.707 134.773 546.067 136.224 545.47 137.504C544.958 138.869 544.574 139.851 544.318 140.448ZM620.019 118.048C613.448 118.048 607.603 116.555 602.483 113.568C597.448 110.581 593.48 106.485 590.579 101.28C587.763 95.9893 586.355 90.016 586.355 83.36C586.355 76.704 587.763 70.7733 590.579 65.568C593.48 60.3627 597.448 56.2667 602.483 53.28C607.603 50.208 613.448 48.672 620.019 48.672C627.272 48.672 633.374 50.2933 638.323 53.536C643.358 56.7787 646.942 61.1733 649.075 66.72L636.531 71.84C634.995 68.3413 632.776 65.7387 629.875 64.032C627.059 62.24 623.688 61.344 619.763 61.344C616.179 61.344 612.894 62.2827 609.907 64.16C606.92 65.952 604.531 68.4693 602.739 71.712C600.947 74.9547 600.051 78.8373 600.051 83.36C600.051 87.7973 600.947 91.68 602.739 95.008C604.531 98.336 606.92 100.896 609.907 102.688C612.894 104.48 616.179 105.376 619.763 105.376C623.944 105.376 627.486 104.437 630.387 102.56C633.288 100.683 635.55 98.0373 637.171 94.624L649.459 100C647.07 105.205 643.358 109.515 638.323 112.928C633.374 116.341 627.272 118.048 620.019 118.048ZM660.561 116V24.352H674.385V116H660.561ZM720.26 118.048C713.86 118.048 708.143 116.555 703.108 113.568C698.073 110.581 694.105 106.485 691.204 101.28C688.388 96.0747 686.98 90.144 686.98 83.488C686.98 77.2587 688.345 71.4987 691.076 66.208C693.807 60.9173 697.604 56.6933 702.468 53.536C707.417 50.2933 713.092 48.672 719.492 48.672C726.233 48.672 731.951 50.1227 736.644 53.024C741.423 55.9253 745.049 59.8933 747.524 64.928C749.999 69.9627 751.236 75.6373 751.236 81.952C751.236 82.8907 751.193 83.744 751.108 84.512C751.108 85.28 751.065 85.8773 750.98 86.304H700.548C700.889 89.888 701.785 93.0027 703.236 95.648C705.113 98.976 707.588 101.493 710.66 103.2C713.732 104.907 717.06 105.76 720.644 105.76C724.996 105.76 728.623 104.779 731.524 102.816C734.511 100.768 736.857 98.2507 738.564 95.264L749.956 100.768C747.14 105.888 743.3 110.069 738.436 113.312C733.572 116.469 727.513 118.048 720.26 118.048ZM701.316 75.936H737.54C737.455 74.3147 737.028 72.608 736.26 70.816C735.492 68.9387 734.383 67.232 732.932 65.696C731.481 64.16 729.647 62.9227 727.428 61.984C725.209 60.96 722.607 60.448 719.62 60.448C715.865 60.448 712.537 61.4293 709.636 63.392C706.735 65.2693 704.473 67.9147 702.852 71.328C702.169 72.7787 701.657 74.3147 701.316 75.936ZM302.24 231V139.352H336.544C341.579 139.352 346.144 140.419 350.24 142.552C354.336 144.685 357.579 147.587 359.968 151.256C362.443 154.925 363.68 159.064 363.68 163.672C363.68 168.365 362.528 172.376 360.224 175.704C357.92 179.032 354.933 181.549 351.264 183.256V183.896C355.872 185.432 359.627 188.077 362.528 191.832C365.429 195.587 366.88 200.067 366.88 205.272C366.88 210.392 365.557 214.872 362.912 218.712C360.352 222.552 356.853 225.581 352.416 227.8C348.064 229.933 343.285 231 338.08 231H302.24ZM316.32 190.424V217.944H338.08C341.152 217.944 343.797 217.304 346.016 216.024C348.235 214.744 349.899 213.037 351.008 210.904C352.203 208.771 352.8 206.552 352.8 204.248C352.8 201.773 352.203 199.512 351.008 197.464C349.813 195.331 348.064 193.624 345.76 192.344C343.541 191.064 340.811 190.424 337.568 190.424H316.32ZM316.32 177.88H335.904C338.891 177.88 341.408 177.283 343.456 176.088C345.589 174.808 347.211 173.187 348.32 171.224C349.429 169.176 349.984 167.085 349.984 164.952C349.984 162.819 349.429 160.813 348.32 158.936C347.296 156.973 345.76 155.395 343.712 154.2C341.664 152.92 339.232 152.28 336.416 152.28H316.32V177.88ZM379.311 231V165.72H393.135V231H379.311ZM386.223 156.12C383.663 156.12 381.444 155.224 379.567 153.432C377.775 151.555 376.879 149.336 376.879 146.776C376.879 144.131 377.775 141.955 379.567 140.248C381.444 138.456 383.663 137.56 386.223 137.56C388.868 137.56 391.087 138.456 392.879 140.248C394.671 141.955 395.567 144.131 395.567 146.776C395.567 149.336 394.671 151.555 392.879 153.432C391.087 155.224 388.868 156.12 386.223 156.12ZM409.186 231V165.72H422.242V174.68H423.01C424.887 171.523 427.661 168.92 431.33 166.872C435.085 164.739 439.181 163.672 443.618 163.672C451.639 163.672 457.655 166.061 461.666 170.84C465.677 175.533 467.682 181.848 467.682 189.784V231H453.986V191.576C453.986 186.285 452.663 182.445 450.018 180.056C447.373 177.581 443.917 176.344 439.65 176.344C436.322 176.344 433.421 177.283 430.946 179.16C428.471 180.952 426.509 183.341 425.058 186.328C423.693 189.315 423.01 192.515 423.01 195.928V231H409.186Z" fill="black"/>
</svg>
