<svg width="500" height="500" viewBox="0 0 500 500" fill="none" xmlns="http://www.w3.org/2000/svg">
<path d="M250 292.894L353.554 396.447L250 500.001L217.157 467.158C178.105 428.105 178.105 364.789 217.157 325.736L250 292.894Z" fill="#00BC7D"/>
<path d="M250 207.107L146.446 103.554L250 0.000320417L282.843 32.8432C321.895 71.8956 321.895 135.212 282.843 174.265L250 207.107Z" fill="#00BC7D"/>
<path d="M207.107 250L103.554 353.554L0.000320417 250L32.8432 217.157C71.8956 178.105 135.212 178.105 174.265 217.157L207.107 250Z" fill="#00BC7D"/>
<path d="M292.894 250L396.447 146.446L500.001 250L467.158 282.843C428.105 321.895 364.789 321.895 325.736 282.843L292.894 250Z" fill="#00BC7D"/>
</svg>
